 <svg version="1.0" xmlns="http://www.w3.org/2000/svg" width="700.000000pt" height="700.000000pt" viewBox="0 0 700.000000 700.000000" preserveAspectRatio="xMidYMid meet">
<metadata>
Created by potrace 1.12, written by Peter Selinger 2001-2015
</metadata>
<g transform="translate(0.000000,700.000000) scale(0.100000,-0.100000)" fill="#000000" stroke="none">
<path d="M2440 5540 c-8 -5 -27 -10 -41 -10 -15 0 -53 -11 -85 -25 -33 -14
-68 -29 -79 -34 -160 -67 -351 -223 -504 -412 -76 -94 -211 -288 -211 -304 0
-5 -6 -16 -14 -24 -8 -9 -30 -46 -50 -84 -20 -37 -40 -75 -45 -85 -9 -16 -30
-63 -68 -152 -25 -57 -31 -73 -49 -125 -9 -27 -21 -54 -26 -59 -4 -6 -8 -22
-8 -37 0 -15 -4 -31 -10 -34 -5 -3 -10 -17 -10 -29 0 -13 -7 -37 -15 -52 -8
-16 -15 -41 -15 -56 0 -15 -4 -29 -9 -32 -4 -3 -12 -29 -15 -58 -4 -29 -12
-80 -17 -113 -17 -101 -22 -314 -9 -390 13 -78 16 -86 54 -165 14 -30 26 -60
26 -67 0 -27 145 -163 174 -163 2 0 8 14 11 32 6 26 3 35 -15 50 -12 10 -29
18 -36 18 -8 0 -32 12 -54 26 -72 48 -140 253 -140 423 0 362 179 882 434
1264 245 367 509 583 803 657 143 36 361 20 503 -36 176 -70 296 -196 409
-429 49 -101 58 -127 83 -245 24 -120 12 -713 -17 -759 -4 -8 -12 -41 -16 -75
-16 -118 -20 -141 -29 -161 -5 -11 -11 -36 -14 -55 -3 -19 -13 -60 -22 -90
-31 -107 -36 -125 -41 -155 -3 -16 -9 -34 -13 -40 -4 -5 -15 -35 -25 -65 -10
-30 -21 -64 -25 -75 -24 -65 -43 -112 -51 -127 -5 -10 -9 -22 -9 -28 0 -11
-35 -89 -96 -216 -24 -50 -44 -93 -44 -96 0 -4 -20 -41 -45 -82 -25 -42 -45
-79 -45 -82 0 -3 -11 -20 -25 -38 -14 -18 -25 -37 -25 -41 0 -5 -22 -39 -50
-77 -27 -38 -50 -73 -50 -78 0 -14 44 -80 51 -77 8 2 119 165 119 173 0 3 8
18 19 32 32 45 131 236 173 332 9 19 25 57 37 83 12 26 29 67 37 90 9 23 20
51 24 62 23 56 60 162 60 173 0 7 4 20 9 30 5 9 17 44 26 77 10 33 21 69 26
80 4 11 10 34 14 50 3 17 10 46 14 65 77 315 103 509 103 780 0 209 -15 357
-43 428 -5 13 -9 34 -9 47 0 13 -4 27 -10 30 -5 3 -10 14 -10 24 0 37 -101
233 -166 321 -75 102 -206 207 -299 239 -22 7 -53 19 -70 26 -46 21 -97 26
-265 31 -95 3 -161 1 -170 -6z"></path>
<path d="M4090 5540 c-14 -4 -42 -8 -62 -9 -44 -1 -159 -29 -173 -42 -5 -5
-17 -9 -27 -9 -37 0 -153 -79 -203 -138 -46 -54 -62 -122 -72 -302 -6 -114 7
-175 57 -273 30 -59 43 -74 69 -81 25 -7 35 -5 51 9 11 10 20 23 20 29 0 6 11
28 25 48 27 39 137 108 173 108 11 0 23 4 26 9 3 4 27 11 53 15 27 3 89 13
138 22 137 24 415 29 599 10 102 -11 162 -13 179 -7 30 11 43 60 21 77 -22 17
-211 28 -504 28 -257 0 -395 -10 -453 -33 -16 -6 -41 -11 -57 -11 -16 0 -32
-4 -35 -10 -3 -5 -15 -10 -25 -10 -23 0 -107 -44 -136 -71 -12 -11 -32 -41
-45 -66 -39 -76 -69 -71 -100 17 -30 82 -33 160 -14 290 20 137 42 182 118
240 106 80 226 114 463 132 128 9 197 9 330 -1 195 -14 449 -45 599 -72 28 -5
131 -23 230 -40 99 -17 245 -42 325 -55 425 -73 664 -104 807 -104 111 0 287
46 309 81 13 22 45 7 64 -30 11 -22 24 -42 30 -46 13 -8 13 -202 0 -210 -5 -3
-10 -15 -10 -27 0 -26 -45 -116 -73 -147 -39 -42 -99 -81 -127 -81 -14 0 -31
-5 -37 -11 -6 -6 -62 -8 -159 -5 -155 4 -223 12 -359 41 -44 9 -102 21 -130
25 -114 21 -152 28 -185 39 -19 6 -49 11 -67 11 -17 0 -35 5 -38 10 -3 6 -28
10 -55 10 -27 0 -52 5 -55 10 -3 6 -31 10 -61 10 l-54 0 0 -35 c0 -19 -8 -54
-19 -78 -10 -23 -26 -62 -36 -87 -9 -25 -21 -53 -26 -62 -5 -10 -9 -24 -9 -31
0 -13 -19 -59 -41 -99 -5 -10 -9 -26 -9 -36 0 -10 -3 -22 -7 -26 -7 -6 -22
-45 -49 -126 -8 -25 -19 -53 -24 -62 -6 -10 -10 -29 -10 -42 0 -14 -4 -27 -9
-30 -5 -4 -17 -32 -26 -64 -9 -31 -21 -65 -26 -74 -5 -10 -9 -24 -9 -32 0 -7
-7 -27 -15 -42 -8 -16 -15 -37 -15 -46 0 -9 -4 -20 -10 -23 -5 -3 -10 -19 -10
-35 0 -16 -4 -31 -9 -34 -5 -3 -11 -18 -14 -33 -5 -30 -24 -87 -38 -115 -5
-10 -9 -29 -9 -42 0 -14 -4 -27 -9 -30 -5 -3 -11 -18 -14 -33 -5 -30 -24 -87
-38 -115 -5 -10 -9 -29 -9 -42 0 -14 -4 -28 -10 -31 -5 -3 -10 -16 -10 -28 -1
-24 -33 -123 -44 -134 -3 -3 -6 -21 -6 -39 0 -18 -4 -36 -10 -39 -5 -3 -10
-17 -10 -29 0 -13 -7 -37 -15 -52 -8 -16 -15 -39 -15 -51 0 -12 -4 -25 -10
-28 -5 -3 -10 -21 -10 -40 0 -19 -4 -36 -9 -39 -5 -3 -11 -20 -14 -38 -3 -18
-13 -60 -22 -93 -10 -33 -19 -77 -22 -98 -3 -20 -9 -40 -14 -43 -5 -3 -9 -16
-9 -28 0 -13 -7 -40 -15 -59 -8 -20 -15 -51 -15 -70 0 -18 -4 -37 -9 -43 -5
-5 -11 -27 -14 -49 -6 -44 -19 -107 -35 -175 -19 -77 -32 -175 -32 -237 0 -83
-13 -93 -119 -93 -80 0 -158 17 -211 45 -28 15 -65 82 -75 136 -20 111 100
667 280 1299 142 501 381 1254 451 1422 25 60 30 88 16 88 -11 0 -62 -100 -62
-122 0 -9 -4 -20 -10 -23 -5 -3 -10 -14 -10 -24 0 -10 -7 -32 -15 -47 -8 -16
-15 -37 -15 -46 0 -9 -4 -20 -10 -23 -5 -3 -10 -17 -10 -30 0 -13 -4 -27 -10
-30 -5 -3 -10 -17 -10 -30 0 -13 -4 -27 -10 -30 -5 -3 -10 -16 -10 -29 0 -12
-7 -31 -15 -42 -8 -10 -15 -31 -15 -46 0 -15 -4 -30 -10 -33 -5 -3 -10 -17
-10 -29 0 -13 -7 -37 -15 -52 -8 -16 -15 -37 -15 -46 0 -9 -4 -20 -10 -23 -5
-3 -10 -19 -10 -35 0 -16 -4 -32 -10 -35 -5 -3 -10 -17 -10 -31 0 -13 -4 -32
-9 -42 -10 -19 -31 -82 -51 -152 -20 -69 -61 -202 -71 -228 -5 -13 -9 -34 -9
-47 0 -13 -4 -26 -9 -29 -5 -3 -12 -23 -16 -43 -4 -21 -10 -42 -15 -48 -4 -5
-10 -26 -13 -45 -5 -35 -10 -52 -42 -160 -9 -30 -19 -66 -22 -80 -2 -14 -8
-34 -13 -45 -5 -11 -11 -33 -13 -50 -3 -16 -12 -55 -22 -85 -9 -30 -19 -68
-21 -85 -3 -16 -9 -39 -14 -50 -5 -11 -11 -33 -14 -50 -2 -16 -12 -57 -21 -90
-16 -58 -24 -92 -44 -200 -5 -27 -17 -81 -26 -120 -21 -86 -35 -183 -41 -297
-5 -78 -3 -91 15 -117 12 -16 21 -36 21 -44 0 -50 85 -129 160 -150 47 -12
219 -27 248 -20 31 7 42 32 42 99 0 64 20 189 55 344 7 30 18 82 25 115 14 65
29 126 84 335 62 233 72 269 79 276 4 4 7 14 7 23 0 8 12 53 26 100 14 47 29
100 34 116 17 60 111 361 119 380 5 11 14 40 21 65 13 47 37 121 50 155 10 27
47 139 67 200 8 28 19 59 23 70 5 11 16 45 26 75 10 30 22 59 26 64 4 6 8 19
8 31 0 12 4 25 8 31 4 5 16 34 26 64 11 30 23 59 27 65 5 5 9 17 9 26 0 10 12
46 26 81 42 101 46 112 54 133 4 11 15 39 25 62 11 26 15 54 12 72 -4 17 -3
32 2 35 4 3 39 -2 77 -10 38 -8 103 -22 144 -31 41 -8 91 -19 110 -23 19 -5
53 -12 75 -15 22 -4 58 -10 80 -15 335 -67 375 -72 540 -67 83 2 165 8 183 12
71 16 155 119 199 243 20 55 23 256 4 275 -6 6 -11 20 -11 31 0 11 -10 30 -22
43 -12 13 -27 38 -33 56 -13 42 -59 49 -101 15 -116 -95 -303 -96 -884 -8 -30
4 -91 16 -135 25 -44 9 -109 21 -145 26 -98 14 -166 25 -255 43 -85 18 -165
30 -281 44 -39 5 -76 12 -82 16 -13 8 -145 24 -307 37 -154 13 -545 19 -575 9z
m130 -550 c0 -5 -7 -10 -15 -10 -8 0 -15 5 -15 10 0 6 7 10 15 10 8 0 15 -4
15 -10z m-50 -10 c0 -5 -7 -10 -15 -10 -8 0 -15 5 -15 10 0 6 7 10 15 10 8 0
15 -4 15 -10z m-100 -10 c0 -5 -4 -10 -10 -10 -5 0 -10 5 -10 10 0 6 5 10 10
10 6 0 10 -4 10 -10z m-120 -30 c0 -5 -6 -10 -12 -10 -21 0 -122 -50 -144 -71
-12 -11 -24 -16 -28 -11 -11 19 120 95 177 101 4 1 7 -3 7 -9z m2820 -165
c-12 -13 -43 -31 -68 -39 -52 -18 -62 -19 -62 -7 0 5 19 14 43 20 23 6 56 21
72 35 37 30 47 25 15 -9z"></path>
<path d="M2545 5271 c-163 -30 -372 -252 -501 -531 -8 -19 -20 -43 -25 -52 -5
-10 -9 -23 -9 -30 0 -6 -6 -19 -13 -27 -7 -9 -19 -34 -26 -56 -14 -46 -28 -79
-47 -117 -8 -14 -14 -33 -14 -42 0 -9 -4 -24 -9 -34 -5 -9 -14 -37 -21 -62 -7
-25 -18 -60 -26 -78 -8 -18 -14 -46 -14 -62 0 -16 -4 -31 -9 -34 -9 -6 -11
-18 -29 -141 -5 -33 -12 -68 -16 -77 -6 -13 -3 -20 10 -25 23 -8 62 40 70 87
3 19 10 49 14 65 5 17 14 50 21 75 12 47 36 121 49 155 4 11 14 40 21 65 12
42 48 132 70 172 5 10 9 22 9 28 0 23 100 211 162 305 81 123 206 246 298 293
60 30 72 32 161 32 68 0 106 -5 130 -16 44 -21 119 -93 119 -114 0 -9 4 -20 9
-25 19 -22 33 -183 27 -320 -9 -243 -27 -376 -87 -642 -5 -24 -13 -62 -18 -85
-5 -24 -17 -70 -26 -103 -19 -70 -32 -120 -44 -172 -4 -21 -17 -65 -28 -98
-11 -33 -32 -100 -48 -150 -16 -49 -32 -94 -37 -99 -4 -6 -8 -18 -8 -28 0 -10
-4 -26 -9 -36 -5 -9 -17 -37 -26 -62 -27 -70 -37 -94 -46 -112 -5 -10 -9 -23
-9 -28 0 -6 -12 -37 -26 -68 -14 -31 -33 -73 -41 -92 -8 -19 -23 -53 -33 -75
-10 -22 -20 -48 -23 -57 -7 -21 -37 -24 -55 -6 -8 8 -45 13 -106 13 -80 0
-100 -4 -141 -25 -95 -49 -205 -171 -205 -227 0 -16 8 -27 25 -33 23 -9 25
-14 20 -44 -6 -29 -3 -37 17 -49 12 -8 46 -18 73 -22 28 -3 67 -11 88 -17 31
-10 41 -9 54 5 22 21 11 43 -31 61 -20 9 -51 23 -70 31 -19 8 -50 15 -70 15
-30 0 -38 5 -52 31 -20 40 -11 61 53 130 92 99 177 129 306 108 53 -9 84 -10
95 -3 52 31 254 544 355 904 113 401 161 649 187 962 12 147 2 292 -26 387
-22 77 -138 209 -207 239 -38 16 -158 23 -212 13z m-5 -49 c0 -5 -18 -16 -40
-26 -22 -9 -63 -33 -91 -52 -69 -48 -74 -36 -7 15 69 51 138 83 138 63z"></path>
<path d="M1872 3908 c3 -8 32 -16 69 -19 36 -4 100 -18 143 -30 62 -19 84 -31
103 -56 l25 -32 -49 -64 c-26 -35 -72 -113 -102 -173 -51 -103 -64 -131 -90
-196 -6 -16 -16 -39 -22 -52 -7 -14 -9 -38 -4 -58 4 -18 7 -53 8 -78 l2 -45
-40 -5 c-34 -4 -40 -9 -46 -35 -4 -16 -12 -43 -17 -60 -24 -70 -32 -103 -32
-128 0 -14 -4 -28 -9 -31 -5 -3 -11 -23 -14 -43 -3 -21 -13 -74 -22 -118 -20
-92 -32 -387 -17 -419 5 -12 15 -39 21 -62 6 -22 22 -51 37 -65 22 -20 36 -24
88 -24 53 0 71 5 120 35 86 52 218 200 178 200 -4 0 -42 -35 -84 -78 -41 -42
-89 -84 -104 -92 -16 -8 -36 -20 -45 -28 -11 -8 -36 -12 -70 -10 -48 3 -56 6
-76 37 -21 31 -23 46 -23 151 0 108 4 142 31 290 11 59 36 165 49 215 50 177
49 175 90 175 28 0 60 27 60 50 0 7 -11 28 -25 46 -26 33 -32 59 -16 68 4 3
16 27 25 53 44 121 131 290 199 384 64 91 72 127 33 153 -16 10 -26 27 -28 48
-3 37 -14 44 -134 82 -90 29 -219 37 -212 14z"></path>
<path d="M1413 3008 c-16 -27 -47 -305 -47 -423 1 -106 15 -244 25 -251 5 -3
9 -16 9 -30 0 -24 2 -30 33 -92 9 -19 17 -38 17 -43 0 -20 46 -106 82 -157 63
-86 172 -155 288 -181 100 -23 330 -6 400 29 11 6 29 15 40 20 11 6 24 10 29
10 17 0 126 69 189 120 34 27 64 50 66 50 2 0 63 -75 136 -166 235 -292 360
-399 511 -434 110 -25 239 17 345 113 55 50 124 136 124 155 0 18 -31 42 -54
42 -15 0 -37 -17 -65 -50 -43 -51 -126 -113 -193 -145 -58 -27 -218 -25 -279
4 -109 50 -213 148 -405 386 -45 55 -99 120 -121 144 l-40 45 -87 -63 c-94
-68 -207 -131 -235 -131 -10 0 -21 -3 -25 -7 -37 -37 -298 -51 -398 -21 -144
42 -207 91 -259 202 -20 45 -50 122 -66 171 -27 88 -28 96 -27 305 0 161 5
234 17 292 9 42 17 86 17 98 0 22 -15 27 -27 8z m1042 -954 c-73 -63 -216
-143 -287 -160 -53 -12 -27 11 39 36 37 14 100 46 141 73 40 26 76 47 81 47 5
0 14 7 21 15 7 8 18 15 24 15 6 0 -2 -12 -19 -26z m-335 -163 c0 -10 -42 -23
-49 -15 -7 6 20 24 37 24 6 0 12 -4 12 -9z m1377 -287 c-58 -52 -158 -101
-157 -76 1 4 23 17 50 30 27 13 70 40 97 62 64 51 71 40 10 -16z m-177 -84 c0
-5 -4 -10 -10 -10 -5 0 -10 5 -10 10 0 6 5 10 10 10 6 0 10 -4 10 -10z"></path>
<path d="M2810 2350 c0 -28 344 -386 440 -458 73 -54 151 -92 189 -92 17 0 49
7 72 17 39 15 43 15 54 0 27 -37 56 -10 31 28 -17 26 -69 35 -81 15 -3 -6 -19
-17 -35 -25 -30 -15 -36 -14 -110 19 -74 32 -229 175 -479 439 -62 65 -81 78
-81 57z"></path>
</g>
</svg>